<svg width="18" height="22" viewBox="0 0 18 22" fill="none" xmlns="http://www.w3.org/2000/svg">
<g id="Group">
<path id="Vector" d="M2.14302 13C1.39267 11.7712 0.997071 10.3588 1.00002 8.919C1.00002 4.545 4.58202 1 9.00002 1C13.418 1 17 4.545 17 8.919C17.003 10.3588 16.6074 11.7712 15.857 13M12 18L11.87 18.647C11.73 19.354 11.659 19.707 11.5 19.987C11.255 20.4186 10.8583 20.7436 10.387 20.899C10.082 21 9.72002 21 9.00002 21C8.28002 21 7.91802 21 7.61302 20.9C7.14155 20.7444 6.74483 20.4189 6.50002 19.987C6.34102 19.707 6.27002 19.354 6.13002 18.647L6.00002 18M4.38302 16.098C4.29102 15.822 4.24502 15.683 4.25002 15.571C4.25567 15.4552 4.29476 15.3435 4.36256 15.2494C4.43035 15.1554 4.52394 15.083 4.63202 15.041C4.73602 15 4.88202 15 5.17202 15H12.828C13.119 15 13.264 15 13.368 15.04C13.4762 15.0821 13.5699 15.1546 13.6377 15.2489C13.7055 15.3431 13.7445 15.455 13.75 15.571C13.755 15.683 13.709 15.821 13.617 16.098C13.447 16.609 13.362 16.865 13.231 17.072C12.957 17.5046 12.5275 17.8156 12.031 17.941C11.793 18 11.525 18 10.988 18H7.01202C6.47502 18 6.20602 18 5.96902 17.94C5.47268 17.8149 5.0432 17.5042 4.76902 17.072C4.63802 16.865 4.55302 16.609 4.38302 16.098Z" stroke="#FB6514" stroke-width="1.5" stroke-linecap="round" stroke-linejoin="round"/>
<path id="Vector_2" d="M5.25 8.75L7.5 11V15M12.75 8.75L10.5 11V15M5.25 9.5C5.44891 9.5 5.63968 9.42098 5.78033 9.28033C5.92098 9.13968 6 8.94891 6 8.75C6 8.55109 5.92098 8.36032 5.78033 8.21967C5.63968 8.07902 5.44891 8 5.25 8C5.05109 8 4.86032 8.07902 4.71967 8.21967C4.57902 8.36032 4.5 8.55109 4.5 8.75C4.5 8.94891 4.57902 9.13968 4.71967 9.28033C4.86032 9.42098 5.05109 9.5 5.25 9.5ZM12.75 9.5C12.5511 9.5 12.3603 9.42098 12.2197 9.28033C12.079 9.13968 12 8.94891 12 8.75C12 8.55109 12.079 8.36032 12.2197 8.21967C12.3603 8.07902 12.5511 8 12.75 8C12.9489 8 13.1397 8.07902 13.2803 8.21967C13.421 8.36032 13.5 8.55109 13.5 8.75C13.5 8.94891 13.421 9.13968 13.2803 9.28033C13.1397 9.42098 12.9489 9.5 12.75 9.5Z" stroke="#FB6514" stroke-width="1.5" stroke-linecap="round" stroke-linejoin="round"/>
</g>
</svg>
